<?xml version="1.0" encoding="utf-8" standalone="no"?>
<!DOCTYPE svg PUBLIC "-//W3C//DTD SVG 1.1//EN"
  "http://www.w3.org/Graphics/SVG/1.1/DTD/svg11.dtd">
<!-- Created with matplotlib (https://matplotlib.org/) -->
<svg height="288pt" version="1.1" viewBox="0 0 576 288" width="576pt" xmlns="http://www.w3.org/2000/svg" xmlns:xlink="http://www.w3.org/1999/xlink">
 <defs>
  <style type="text/css">
*{stroke-linecap:butt;stroke-linejoin:round;}
  </style>
 </defs>
 <g id="figure_1">
  <g id="patch_1">
   <path d="M 0 288 
L 576 288 
L 576 0 
L 0 0 
z
" style="fill:#ffffff;"/>
  </g>
  <g id="axes_1">
   <g id="patch_2">
    <path d="M 52.925 246.2 
L 554.544472 246.2 
L 554.544472 26.8 
L 52.925 26.8 
z
" style="fill:#ffffff;"/>
   </g>
   <g id="matplotlib.axis_1">
    <g id="xtick_1">
     <g id="line2d_1">
      <path clip-path="url(#p3be40ccbbf)" d="M 55.101969 246.2 
L 55.101969 26.8 
" style="fill:none;stroke:#b0b0b0;stroke-linecap:square;stroke-width:0.8;"/>
     </g>
     <g id="line2d_2">
      <defs>
       <path d="M 0 0 
L 0 3.5 
" id="m5d6125fd98" style="stroke:#000000;stroke-width:0.8;"/>
      </defs>
      <g>
       <use style="stroke:#000000;stroke-width:0.8;" x="55.101969" xlink:href="#m5d6125fd98" y="246.2"/>
      </g>
     </g>
     <g id="text_1">
      <!-- 2019-10 -->
      <defs>
       <path d="M 19.1875 8.296875 
L 53.609375 8.296875 
L 53.609375 0 
L 7.328125 0 
L 7.328125 8.296875 
Q 12.9375 14.109375 22.625 23.890625 
Q 32.328125 33.6875 34.8125 36.53125 
Q 39.546875 41.84375 41.421875 45.53125 
Q 43.3125 49.21875 43.3125 52.78125 
Q 43.3125 58.59375 39.234375 62.25 
Q 35.15625 65.921875 28.609375 65.921875 
Q 23.96875 65.921875 18.8125 64.3125 
Q 13.671875 62.703125 7.8125 59.421875 
L 7.8125 69.390625 
Q 13.765625 71.78125 18.9375 73 
Q 24.125 74.21875 28.421875 74.21875 
Q 39.75 74.21875 46.484375 68.546875 
Q 53.21875 62.890625 53.21875 53.421875 
Q 53.21875 48.921875 51.53125 44.890625 
Q 49.859375 40.875 45.40625 35.40625 
Q 44.1875 33.984375 37.640625 27.21875 
Q 31.109375 20.453125 19.1875 8.296875 
z
" id="DejaVuSans-50"/>
       <path d="M 31.78125 66.40625 
Q 24.171875 66.40625 20.328125 58.90625 
Q 16.5 51.421875 16.5 36.375 
Q 16.5 21.390625 20.328125 13.890625 
Q 24.171875 6.390625 31.78125 6.390625 
Q 39.453125 6.390625 43.28125 13.890625 
Q 47.125 21.390625 47.125 36.375 
Q 47.125 51.421875 43.28125 58.90625 
Q 39.453125 66.40625 31.78125 66.40625 
z
M 31.78125 74.21875 
Q 44.046875 74.21875 50.515625 64.515625 
Q 56.984375 54.828125 56.984375 36.375 
Q 56.984375 17.96875 50.515625 8.265625 
Q 44.046875 -1.421875 31.78125 -1.421875 
Q 19.53125 -1.421875 13.0625 8.265625 
Q 6.59375 17.96875 6.59375 36.375 
Q 6.59375 54.828125 13.0625 64.515625 
Q 19.53125 74.21875 31.78125 74.21875 
z
" id="DejaVuSans-48"/>
       <path d="M 12.40625 8.296875 
L 28.515625 8.296875 
L 28.515625 63.921875 
L 10.984375 60.40625 
L 10.984375 69.390625 
L 28.421875 72.90625 
L 38.28125 72.90625 
L 38.28125 8.296875 
L 54.390625 8.296875 
L 54.390625 0 
L 12.40625 0 
z
" id="DejaVuSans-49"/>
       <path d="M 10.984375 1.515625 
L 10.984375 10.5 
Q 14.703125 8.734375 18.5 7.8125 
Q 22.3125 6.890625 25.984375 6.890625 
Q 35.75 6.890625 40.890625 13.453125 
Q 46.046875 20.015625 46.78125 33.40625 
Q 43.953125 29.203125 39.59375 26.953125 
Q 35.25 24.703125 29.984375 24.703125 
Q 19.046875 24.703125 12.671875 31.3125 
Q 6.296875 37.9375 6.296875 49.421875 
Q 6.296875 60.640625 12.9375 67.421875 
Q 19.578125 74.21875 30.609375 74.21875 
Q 43.265625 74.21875 49.921875 64.515625 
Q 56.59375 54.828125 56.59375 36.375 
Q 56.59375 19.140625 48.40625 8.859375 
Q 40.234375 -1.421875 26.421875 -1.421875 
Q 22.703125 -1.421875 18.890625 -0.6875 
Q 15.09375 0.046875 10.984375 1.515625 
z
M 30.609375 32.421875 
Q 37.25 32.421875 41.125 36.953125 
Q 45.015625 41.5 45.015625 49.421875 
Q 45.015625 57.28125 41.125 61.84375 
Q 37.25 66.40625 30.609375 66.40625 
Q 23.96875 66.40625 20.09375 61.84375 
Q 16.21875 57.28125 16.21875 49.421875 
Q 16.21875 41.5 20.09375 36.953125 
Q 23.96875 32.421875 30.609375 32.421875 
z
" id="DejaVuSans-57"/>
       <path d="M 4.890625 31.390625 
L 31.203125 31.390625 
L 31.203125 23.390625 
L 4.890625 23.390625 
z
" id="DejaVuSans-45"/>
      </defs>
      <g transform="translate(34.210563 260.798437)scale(0.1 -0.1)">
       <use xlink:href="#DejaVuSans-50"/>
       <use x="63.623047" xlink:href="#DejaVuSans-48"/>
       <use x="127.246094" xlink:href="#DejaVuSans-49"/>
       <use x="190.869141" xlink:href="#DejaVuSans-57"/>
       <use x="254.492188" xlink:href="#DejaVuSans-45"/>
       <use x="290.576172" xlink:href="#DejaVuSans-49"/>
       <use x="354.199219" xlink:href="#DejaVuSans-48"/>
      </g>
     </g>
    </g>
    <g id="xtick_2">
     <g id="line2d_3">
      <path clip-path="url(#p3be40ccbbf)" d="M 126.139902 246.2 
L 126.139902 26.8 
" style="fill:none;stroke:#b0b0b0;stroke-linecap:square;stroke-width:0.8;"/>
     </g>
     <g id="line2d_4">
      <g>
       <use style="stroke:#000000;stroke-width:0.8;" x="126.139902" xlink:href="#m5d6125fd98" y="246.2"/>
      </g>
     </g>
     <g id="text_2">
      <!-- 2019-11 -->
      <g transform="translate(105.248496 260.798437)scale(0.1 -0.1)">
       <use xlink:href="#DejaVuSans-50"/>
       <use x="63.623047" xlink:href="#DejaVuSans-48"/>
       <use x="127.246094" xlink:href="#DejaVuSans-49"/>
       <use x="190.869141" xlink:href="#DejaVuSans-57"/>
       <use x="254.492188" xlink:href="#DejaVuSans-45"/>
       <use x="290.576172" xlink:href="#DejaVuSans-49"/>
       <use x="354.199219" xlink:href="#DejaVuSans-49"/>
      </g>
     </g>
    </g>
    <g id="xtick_3">
     <g id="line2d_5">
      <path clip-path="url(#p3be40ccbbf)" d="M 194.88629 246.2 
L 194.88629 26.8 
" style="fill:none;stroke:#b0b0b0;stroke-linecap:square;stroke-width:0.8;"/>
     </g>
     <g id="line2d_6">
      <g>
       <use style="stroke:#000000;stroke-width:0.8;" x="194.88629" xlink:href="#m5d6125fd98" y="246.2"/>
      </g>
     </g>
     <g id="text_3">
      <!-- 2019-12 -->
      <g transform="translate(173.994883 260.798437)scale(0.1 -0.1)">
       <use xlink:href="#DejaVuSans-50"/>
       <use x="63.623047" xlink:href="#DejaVuSans-48"/>
       <use x="127.246094" xlink:href="#DejaVuSans-49"/>
       <use x="190.869141" xlink:href="#DejaVuSans-57"/>
       <use x="254.492188" xlink:href="#DejaVuSans-45"/>
       <use x="290.576172" xlink:href="#DejaVuSans-49"/>
       <use x="354.199219" xlink:href="#DejaVuSans-50"/>
      </g>
     </g>
    </g>
    <g id="xtick_4">
     <g id="line2d_7">
      <path clip-path="url(#p3be40ccbbf)" d="M 265.924223 246.2 
L 265.924223 26.8 
" style="fill:none;stroke:#b0b0b0;stroke-linecap:square;stroke-width:0.8;"/>
     </g>
     <g id="line2d_8">
      <g>
       <use style="stroke:#000000;stroke-width:0.8;" x="265.924223" xlink:href="#m5d6125fd98" y="246.2"/>
      </g>
     </g>
     <g id="text_4">
      <!-- 2020-01 -->
      <g transform="translate(245.032817 260.798437)scale(0.1 -0.1)">
       <use xlink:href="#DejaVuSans-50"/>
       <use x="63.623047" xlink:href="#DejaVuSans-48"/>
       <use x="127.246094" xlink:href="#DejaVuSans-50"/>
       <use x="190.869141" xlink:href="#DejaVuSans-48"/>
       <use x="254.492188" xlink:href="#DejaVuSans-45"/>
       <use x="290.576172" xlink:href="#DejaVuSans-48"/>
       <use x="354.199219" xlink:href="#DejaVuSans-49"/>
      </g>
     </g>
    </g>
    <g id="xtick_5">
     <g id="line2d_9">
      <path clip-path="url(#p3be40ccbbf)" d="M 336.962157 246.2 
L 336.962157 26.8 
" style="fill:none;stroke:#b0b0b0;stroke-linecap:square;stroke-width:0.8;"/>
     </g>
     <g id="line2d_10">
      <g>
       <use style="stroke:#000000;stroke-width:0.8;" x="336.962157" xlink:href="#m5d6125fd98" y="246.2"/>
      </g>
     </g>
     <g id="text_5">
      <!-- 2020-02 -->
      <g transform="translate(316.07075 260.798437)scale(0.1 -0.1)">
       <use xlink:href="#DejaVuSans-50"/>
       <use x="63.623047" xlink:href="#DejaVuSans-48"/>
       <use x="127.246094" xlink:href="#DejaVuSans-50"/>
       <use x="190.869141" xlink:href="#DejaVuSans-48"/>
       <use x="254.492188" xlink:href="#DejaVuSans-45"/>
       <use x="290.576172" xlink:href="#DejaVuSans-48"/>
       <use x="354.199219" xlink:href="#DejaVuSans-50"/>
      </g>
     </g>
    </g>
    <g id="xtick_6">
     <g id="line2d_11">
      <path clip-path="url(#p3be40ccbbf)" d="M 403.416998 246.2 
L 403.416998 26.8 
" style="fill:none;stroke:#b0b0b0;stroke-linecap:square;stroke-width:0.8;"/>
     </g>
     <g id="line2d_12">
      <g>
       <use style="stroke:#000000;stroke-width:0.8;" x="403.416998" xlink:href="#m5d6125fd98" y="246.2"/>
      </g>
     </g>
     <g id="text_6">
      <!-- 2020-03 -->
      <defs>
       <path d="M 40.578125 39.3125 
Q 47.65625 37.796875 51.625 33 
Q 55.609375 28.21875 55.609375 21.1875 
Q 55.609375 10.40625 48.1875 4.484375 
Q 40.765625 -1.421875 27.09375 -1.421875 
Q 22.515625 -1.421875 17.65625 -0.515625 
Q 12.796875 0.390625 7.625 2.203125 
L 7.625 11.71875 
Q 11.71875 9.328125 16.59375 8.109375 
Q 21.484375 6.890625 26.8125 6.890625 
Q 36.078125 6.890625 40.9375 10.546875 
Q 45.796875 14.203125 45.796875 21.1875 
Q 45.796875 27.640625 41.28125 31.265625 
Q 36.765625 34.90625 28.71875 34.90625 
L 20.21875 34.90625 
L 20.21875 43.015625 
L 29.109375 43.015625 
Q 36.375 43.015625 40.234375 45.921875 
Q 44.09375 48.828125 44.09375 54.296875 
Q 44.09375 59.90625 40.109375 62.90625 
Q 36.140625 65.921875 28.71875 65.921875 
Q 24.65625 65.921875 20.015625 65.03125 
Q 15.375 64.15625 9.8125 62.3125 
L 9.8125 71.09375 
Q 15.4375 72.65625 20.34375 73.4375 
Q 25.25 74.21875 29.59375 74.21875 
Q 40.828125 74.21875 47.359375 69.109375 
Q 53.90625 64.015625 53.90625 55.328125 
Q 53.90625 49.265625 50.4375 45.09375 
Q 46.96875 40.921875 40.578125 39.3125 
z
" id="DejaVuSans-51"/>
      </defs>
      <g transform="translate(382.525591 260.798437)scale(0.1 -0.1)">
       <use xlink:href="#DejaVuSans-50"/>
       <use x="63.623047" xlink:href="#DejaVuSans-48"/>
       <use x="127.246094" xlink:href="#DejaVuSans-50"/>
       <use x="190.869141" xlink:href="#DejaVuSans-48"/>
       <use x="254.492188" xlink:href="#DejaVuSans-45"/>
       <use x="290.576172" xlink:href="#DejaVuSans-48"/>
       <use x="354.199219" xlink:href="#DejaVuSans-51"/>
      </g>
     </g>
    </g>
    <g id="xtick_7">
     <g id="line2d_13">
      <path clip-path="url(#p3be40ccbbf)" d="M 474.454931 246.2 
L 474.454931 26.8 
" style="fill:none;stroke:#b0b0b0;stroke-linecap:square;stroke-width:0.8;"/>
     </g>
     <g id="line2d_14">
      <g>
       <use style="stroke:#000000;stroke-width:0.8;" x="474.454931" xlink:href="#m5d6125fd98" y="246.2"/>
      </g>
     </g>
     <g id="text_7">
      <!-- 2020-04 -->
      <defs>
       <path d="M 37.796875 64.3125 
L 12.890625 25.390625 
L 37.796875 25.390625 
z
M 35.203125 72.90625 
L 47.609375 72.90625 
L 47.609375 25.390625 
L 58.015625 25.390625 
L 58.015625 17.1875 
L 47.609375 17.1875 
L 47.609375 0 
L 37.796875 0 
L 37.796875 17.1875 
L 4.890625 17.1875 
L 4.890625 26.703125 
z
" id="DejaVuSans-52"/>
      </defs>
      <g transform="translate(453.563525 260.798437)scale(0.1 -0.1)">
       <use xlink:href="#DejaVuSans-50"/>
       <use x="63.623047" xlink:href="#DejaVuSans-48"/>
       <use x="127.246094" xlink:href="#DejaVuSans-50"/>
       <use x="190.869141" xlink:href="#DejaVuSans-48"/>
       <use x="254.492188" xlink:href="#DejaVuSans-45"/>
       <use x="290.576172" xlink:href="#DejaVuSans-48"/>
       <use x="354.199219" xlink:href="#DejaVuSans-52"/>
      </g>
     </g>
    </g>
    <g id="xtick_8">
     <g id="line2d_15">
      <path clip-path="url(#p3be40ccbbf)" d="M 543.201318 246.2 
L 543.201318 26.8 
" style="fill:none;stroke:#b0b0b0;stroke-linecap:square;stroke-width:0.8;"/>
     </g>
     <g id="line2d_16">
      <g>
       <use style="stroke:#000000;stroke-width:0.8;" x="543.201318" xlink:href="#m5d6125fd98" y="246.2"/>
      </g>
     </g>
     <g id="text_8">
      <!-- 2020-05 -->
      <defs>
       <path d="M 10.796875 72.90625 
L 49.515625 72.90625 
L 49.515625 64.59375 
L 19.828125 64.59375 
L 19.828125 46.734375 
Q 21.96875 47.46875 24.109375 47.828125 
Q 26.265625 48.1875 28.421875 48.1875 
Q 40.625 48.1875 47.75 41.5 
Q 54.890625 34.8125 54.890625 23.390625 
Q 54.890625 11.625 47.5625 5.09375 
Q 40.234375 -1.421875 26.90625 -1.421875 
Q 22.3125 -1.421875 17.546875 -0.640625 
Q 12.796875 0.140625 7.71875 1.703125 
L 7.71875 11.625 
Q 12.109375 9.234375 16.796875 8.0625 
Q 21.484375 6.890625 26.703125 6.890625 
Q 35.15625 6.890625 40.078125 11.328125 
Q 45.015625 15.765625 45.015625 23.390625 
Q 45.015625 31 40.078125 35.4375 
Q 35.15625 39.890625 26.703125 39.890625 
Q 22.75 39.890625 18.8125 39.015625 
Q 14.890625 38.140625 10.796875 36.28125 
z
" id="DejaVuSans-53"/>
      </defs>
      <g transform="translate(522.309912 260.798437)scale(0.1 -0.1)">
       <use xlink:href="#DejaVuSans-50"/>
       <use x="63.623047" xlink:href="#DejaVuSans-48"/>
       <use x="127.246094" xlink:href="#DejaVuSans-50"/>
       <use x="190.869141" xlink:href="#DejaVuSans-48"/>
       <use x="254.492188" xlink:href="#DejaVuSans-45"/>
       <use x="290.576172" xlink:href="#DejaVuSans-48"/>
       <use x="354.199219" xlink:href="#DejaVuSans-53"/>
      </g>
     </g>
    </g>
    <g id="text_9">
     <!-- Date -->
     <defs>
      <path d="M 19.671875 64.796875 
L 19.671875 8.109375 
L 31.59375 8.109375 
Q 46.6875 8.109375 53.6875 14.9375 
Q 60.6875 21.78125 60.6875 36.53125 
Q 60.6875 51.171875 53.6875 57.984375 
Q 46.6875 64.796875 31.59375 64.796875 
z
M 9.8125 72.90625 
L 30.078125 72.90625 
Q 51.265625 72.90625 61.171875 64.09375 
Q 71.09375 55.28125 71.09375 36.53125 
Q 71.09375 17.671875 61.125 8.828125 
Q 51.171875 0 30.078125 0 
L 9.8125 0 
z
" id="DejaVuSans-68"/>
      <path d="M 34.28125 27.484375 
Q 23.390625 27.484375 19.1875 25 
Q 14.984375 22.515625 14.984375 16.5 
Q 14.984375 11.71875 18.140625 8.90625 
Q 21.296875 6.109375 26.703125 6.109375 
Q 34.1875 6.109375 38.703125 11.40625 
Q 43.21875 16.703125 43.21875 25.484375 
L 43.21875 27.484375 
z
M 52.203125 31.203125 
L 52.203125 0 
L 43.21875 0 
L 43.21875 8.296875 
Q 40.140625 3.328125 35.546875 0.953125 
Q 30.953125 -1.421875 24.3125 -1.421875 
Q 15.921875 -1.421875 10.953125 3.296875 
Q 6 8.015625 6 15.921875 
Q 6 25.140625 12.171875 29.828125 
Q 18.359375 34.515625 30.609375 34.515625 
L 43.21875 34.515625 
L 43.21875 35.40625 
Q 43.21875 41.609375 39.140625 45 
Q 35.0625 48.390625 27.6875 48.390625 
Q 23 48.390625 18.546875 47.265625 
Q 14.109375 46.140625 10.015625 43.890625 
L 10.015625 52.203125 
Q 14.9375 54.109375 19.578125 55.046875 
Q 24.21875 56 28.609375 56 
Q 40.484375 56 46.34375 49.84375 
Q 52.203125 43.703125 52.203125 31.203125 
z
" id="DejaVuSans-97"/>
      <path d="M 18.3125 70.21875 
L 18.3125 54.6875 
L 36.8125 54.6875 
L 36.8125 47.703125 
L 18.3125 47.703125 
L 18.3125 18.015625 
Q 18.3125 11.328125 20.140625 9.421875 
Q 21.96875 7.515625 27.59375 7.515625 
L 36.8125 7.515625 
L 36.8125 0 
L 27.59375 0 
Q 17.1875 0 13.234375 3.875 
Q 9.28125 7.765625 9.28125 18.015625 
L 9.28125 47.703125 
L 2.6875 47.703125 
L 2.6875 54.6875 
L 9.28125 54.6875 
L 9.28125 70.21875 
z
" id="DejaVuSans-116"/>
      <path d="M 56.203125 29.59375 
L 56.203125 25.203125 
L 14.890625 25.203125 
Q 15.484375 15.921875 20.484375 11.0625 
Q 25.484375 6.203125 34.421875 6.203125 
Q 39.59375 6.203125 44.453125 7.46875 
Q 49.3125 8.734375 54.109375 11.28125 
L 54.109375 2.78125 
Q 49.265625 0.734375 44.1875 -0.34375 
Q 39.109375 -1.421875 33.890625 -1.421875 
Q 20.796875 -1.421875 13.15625 6.1875 
Q 5.515625 13.8125 5.515625 26.8125 
Q 5.515625 40.234375 12.765625 48.109375 
Q 20.015625 56 32.328125 56 
Q 43.359375 56 49.78125 48.890625 
Q 56.203125 41.796875 56.203125 29.59375 
z
M 47.21875 32.234375 
Q 47.125 39.59375 43.09375 43.984375 
Q 39.0625 48.390625 32.421875 48.390625 
Q 24.90625 48.390625 20.390625 44.140625 
Q 15.875 39.890625 15.1875 32.171875 
z
" id="DejaVuSans-101"/>
     </defs>
     <g transform="translate(291.783955 274.476562)scale(0.1 -0.1)">
      <use xlink:href="#DejaVuSans-68"/>
      <use x="77.001953" xlink:href="#DejaVuSans-97"/>
      <use x="138.28125" xlink:href="#DejaVuSans-116"/>
      <use x="177.490234" xlink:href="#DejaVuSans-101"/>
     </g>
    </g>
   </g>
   <g id="matplotlib.axis_2">
    <g id="ytick_1">
     <g id="line2d_17">
      <path clip-path="url(#p3be40ccbbf)" d="M 52.925 242.968104 
L 554.544472 242.968104 
" style="fill:none;stroke:#b0b0b0;stroke-linecap:square;stroke-width:0.8;"/>
     </g>
     <g id="line2d_18">
      <defs>
       <path d="M 0 0 
L -3.5 0 
" id="mfdb896eddd" style="stroke:#000000;stroke-width:0.8;"/>
      </defs>
      <g>
       <use style="stroke:#000000;stroke-width:0.8;" x="52.925" xlink:href="#mfdb896eddd" y="242.968104"/>
      </g>
     </g>
     <g id="text_10">
      <!-- −25 -->
      <defs>
       <path d="M 10.59375 35.5 
L 73.1875 35.5 
L 73.1875 27.203125 
L 10.59375 27.203125 
z
" id="DejaVuSans-8722"/>
      </defs>
      <g transform="translate(24.820312 246.767323)scale(0.1 -0.1)">
       <use xlink:href="#DejaVuSans-8722"/>
       <use x="83.789062" xlink:href="#DejaVuSans-50"/>
       <use x="147.412109" xlink:href="#DejaVuSans-53"/>
      </g>
     </g>
    </g>
    <g id="ytick_2">
     <g id="line2d_19">
      <path clip-path="url(#p3be40ccbbf)" d="M 52.925 218.539274 
L 554.544472 218.539274 
" style="fill:none;stroke:#b0b0b0;stroke-linecap:square;stroke-width:0.8;"/>
     </g>
     <g id="line2d_20">
      <g>
       <use style="stroke:#000000;stroke-width:0.8;" x="52.925" xlink:href="#mfdb896eddd" y="218.539274"/>
      </g>
     </g>
     <g id="text_11">
      <!-- −20 -->
      <g transform="translate(24.820312 222.338492)scale(0.1 -0.1)">
       <use xlink:href="#DejaVuSans-8722"/>
       <use x="83.789062" xlink:href="#DejaVuSans-50"/>
       <use x="147.412109" xlink:href="#DejaVuSans-48"/>
      </g>
     </g>
    </g>
    <g id="ytick_3">
     <g id="line2d_21">
      <path clip-path="url(#p3be40ccbbf)" d="M 52.925 194.110443 
L 554.544472 194.110443 
" style="fill:none;stroke:#b0b0b0;stroke-linecap:square;stroke-width:0.8;"/>
     </g>
     <g id="line2d_22">
      <g>
       <use style="stroke:#000000;stroke-width:0.8;" x="52.925" xlink:href="#mfdb896eddd" y="194.110443"/>
      </g>
     </g>
     <g id="text_12">
      <!-- −15 -->
      <g transform="translate(24.820312 197.909662)scale(0.1 -0.1)">
       <use xlink:href="#DejaVuSans-8722"/>
       <use x="83.789062" xlink:href="#DejaVuSans-49"/>
       <use x="147.412109" xlink:href="#DejaVuSans-53"/>
      </g>
     </g>
    </g>
    <g id="ytick_4">
     <g id="line2d_23">
      <path clip-path="url(#p3be40ccbbf)" d="M 52.925 169.681613 
L 554.544472 169.681613 
" style="fill:none;stroke:#b0b0b0;stroke-linecap:square;stroke-width:0.8;"/>
     </g>
     <g id="line2d_24">
      <g>
       <use style="stroke:#000000;stroke-width:0.8;" x="52.925" xlink:href="#mfdb896eddd" y="169.681613"/>
      </g>
     </g>
     <g id="text_13">
      <!-- −10 -->
      <g transform="translate(24.820312 173.480832)scale(0.1 -0.1)">
       <use xlink:href="#DejaVuSans-8722"/>
       <use x="83.789062" xlink:href="#DejaVuSans-49"/>
       <use x="147.412109" xlink:href="#DejaVuSans-48"/>
      </g>
     </g>
    </g>
    <g id="ytick_5">
     <g id="line2d_25">
      <path clip-path="url(#p3be40ccbbf)" d="M 52.925 145.252783 
L 554.544472 145.252783 
" style="fill:none;stroke:#b0b0b0;stroke-linecap:square;stroke-width:0.8;"/>
     </g>
     <g id="line2d_26">
      <g>
       <use style="stroke:#000000;stroke-width:0.8;" x="52.925" xlink:href="#mfdb896eddd" y="145.252783"/>
      </g>
     </g>
     <g id="text_14">
      <!-- −5 -->
      <g transform="translate(31.182812 149.052001)scale(0.1 -0.1)">
       <use xlink:href="#DejaVuSans-8722"/>
       <use x="83.789062" xlink:href="#DejaVuSans-53"/>
      </g>
     </g>
    </g>
    <g id="ytick_6">
     <g id="line2d_27">
      <path clip-path="url(#p3be40ccbbf)" d="M 52.925 120.823952 
L 554.544472 120.823952 
" style="fill:none;stroke:#b0b0b0;stroke-linecap:square;stroke-width:0.8;"/>
     </g>
     <g id="line2d_28">
      <g>
       <use style="stroke:#000000;stroke-width:0.8;" x="52.925" xlink:href="#mfdb896eddd" y="120.823952"/>
      </g>
     </g>
     <g id="text_15">
      <!-- 0 -->
      <g transform="translate(39.5625 124.623171)scale(0.1 -0.1)">
       <use xlink:href="#DejaVuSans-48"/>
      </g>
     </g>
    </g>
    <g id="ytick_7">
     <g id="line2d_29">
      <path clip-path="url(#p3be40ccbbf)" d="M 52.925 96.395122 
L 554.544472 96.395122 
" style="fill:none;stroke:#b0b0b0;stroke-linecap:square;stroke-width:0.8;"/>
     </g>
     <g id="line2d_30">
      <g>
       <use style="stroke:#000000;stroke-width:0.8;" x="52.925" xlink:href="#mfdb896eddd" y="96.395122"/>
      </g>
     </g>
     <g id="text_16">
      <!-- 5 -->
      <g transform="translate(39.5625 100.194341)scale(0.1 -0.1)">
       <use xlink:href="#DejaVuSans-53"/>
      </g>
     </g>
    </g>
    <g id="ytick_8">
     <g id="line2d_31">
      <path clip-path="url(#p3be40ccbbf)" d="M 52.925 71.966292 
L 554.544472 71.966292 
" style="fill:none;stroke:#b0b0b0;stroke-linecap:square;stroke-width:0.8;"/>
     </g>
     <g id="line2d_32">
      <g>
       <use style="stroke:#000000;stroke-width:0.8;" x="52.925" xlink:href="#mfdb896eddd" y="71.966292"/>
      </g>
     </g>
     <g id="text_17">
      <!-- 10 -->
      <g transform="translate(33.2 75.76551)scale(0.1 -0.1)">
       <use xlink:href="#DejaVuSans-49"/>
       <use x="63.623047" xlink:href="#DejaVuSans-48"/>
      </g>
     </g>
    </g>
    <g id="ytick_9">
     <g id="line2d_33">
      <path clip-path="url(#p3be40ccbbf)" d="M 52.925 47.537461 
L 554.544472 47.537461 
" style="fill:none;stroke:#b0b0b0;stroke-linecap:square;stroke-width:0.8;"/>
     </g>
     <g id="line2d_34">
      <g>
       <use style="stroke:#000000;stroke-width:0.8;" x="52.925" xlink:href="#mfdb896eddd" y="47.537461"/>
      </g>
     </g>
     <g id="text_18">
      <!-- 15 -->
      <g transform="translate(33.2 51.33668)scale(0.1 -0.1)">
       <use xlink:href="#DejaVuSans-49"/>
       <use x="63.623047" xlink:href="#DejaVuSans-53"/>
      </g>
     </g>
    </g>
    <g id="text_19">
     <!-- Cum, sum -->
     <defs>
      <path d="M 64.40625 67.28125 
L 64.40625 56.890625 
Q 59.421875 61.53125 53.78125 63.8125 
Q 48.140625 66.109375 41.796875 66.109375 
Q 29.296875 66.109375 22.65625 58.46875 
Q 16.015625 50.828125 16.015625 36.375 
Q 16.015625 21.96875 22.65625 14.328125 
Q 29.296875 6.6875 41.796875 6.6875 
Q 48.140625 6.6875 53.78125 8.984375 
Q 59.421875 11.28125 64.40625 15.921875 
L 64.40625 5.609375 
Q 59.234375 2.09375 53.4375 0.328125 
Q 47.65625 -1.421875 41.21875 -1.421875 
Q 24.65625 -1.421875 15.125 8.703125 
Q 5.609375 18.84375 5.609375 36.375 
Q 5.609375 53.953125 15.125 64.078125 
Q 24.65625 74.21875 41.21875 74.21875 
Q 47.75 74.21875 53.53125 72.484375 
Q 59.328125 70.75 64.40625 67.28125 
z
" id="DejaVuSans-67"/>
      <path d="M 8.5 21.578125 
L 8.5 54.6875 
L 17.484375 54.6875 
L 17.484375 21.921875 
Q 17.484375 14.15625 20.5 10.265625 
Q 23.53125 6.390625 29.59375 6.390625 
Q 36.859375 6.390625 41.078125 11.03125 
Q 45.3125 15.671875 45.3125 23.6875 
L 45.3125 54.6875 
L 54.296875 54.6875 
L 54.296875 0 
L 45.3125 0 
L 45.3125 8.40625 
Q 42.046875 3.421875 37.71875 1 
Q 33.40625 -1.421875 27.6875 -1.421875 
Q 18.265625 -1.421875 13.375 4.4375 
Q 8.5 10.296875 8.5 21.578125 
z
M 31.109375 56 
z
" id="DejaVuSans-117"/>
      <path d="M 52 44.1875 
Q 55.375 50.25 60.0625 53.125 
Q 64.75 56 71.09375 56 
Q 79.640625 56 84.28125 50.015625 
Q 88.921875 44.046875 88.921875 33.015625 
L 88.921875 0 
L 79.890625 0 
L 79.890625 32.71875 
Q 79.890625 40.578125 77.09375 44.375 
Q 74.3125 48.1875 68.609375 48.1875 
Q 61.625 48.1875 57.5625 43.546875 
Q 53.515625 38.921875 53.515625 30.90625 
L 53.515625 0 
L 44.484375 0 
L 44.484375 32.71875 
Q 44.484375 40.625 41.703125 44.40625 
Q 38.921875 48.1875 33.109375 48.1875 
Q 26.21875 48.1875 22.15625 43.53125 
Q 18.109375 38.875 18.109375 30.90625 
L 18.109375 0 
L 9.078125 0 
L 9.078125 54.6875 
L 18.109375 54.6875 
L 18.109375 46.1875 
Q 21.1875 51.21875 25.484375 53.609375 
Q 29.78125 56 35.6875 56 
Q 41.65625 56 45.828125 52.96875 
Q 50 49.953125 52 44.1875 
z
" id="DejaVuSans-109"/>
      <path d="M 11.71875 12.40625 
L 22.015625 12.40625 
L 22.015625 4 
L 14.015625 -11.625 
L 7.71875 -11.625 
L 11.71875 4 
z
" id="DejaVuSans-44"/>
      <path id="DejaVuSans-32"/>
      <path d="M 44.28125 53.078125 
L 44.28125 44.578125 
Q 40.484375 46.53125 36.375 47.5 
Q 32.28125 48.484375 27.875 48.484375 
Q 21.1875 48.484375 17.84375 46.4375 
Q 14.5 44.390625 14.5 40.28125 
Q 14.5 37.15625 16.890625 35.375 
Q 19.28125 33.59375 26.515625 31.984375 
L 29.59375 31.296875 
Q 39.15625 29.25 43.1875 25.515625 
Q 47.21875 21.78125 47.21875 15.09375 
Q 47.21875 7.46875 41.1875 3.015625 
Q 35.15625 -1.421875 24.609375 -1.421875 
Q 20.21875 -1.421875 15.453125 -0.5625 
Q 10.6875 0.296875 5.421875 2 
L 5.421875 11.28125 
Q 10.40625 8.6875 15.234375 7.390625 
Q 20.0625 6.109375 24.8125 6.109375 
Q 31.15625 6.109375 34.5625 8.28125 
Q 37.984375 10.453125 37.984375 14.40625 
Q 37.984375 18.0625 35.515625 20.015625 
Q 33.0625 21.96875 24.703125 23.78125 
L 21.578125 24.515625 
Q 13.234375 26.265625 9.515625 29.90625 
Q 5.8125 33.546875 5.8125 39.890625 
Q 5.8125 47.609375 11.28125 51.796875 
Q 16.75 56 26.8125 56 
Q 31.78125 56 36.171875 55.265625 
Q 40.578125 54.546875 44.28125 53.078125 
z
" id="DejaVuSans-115"/>
     </defs>
     <g transform="translate(18.740625 161.852344)rotate(-90)scale(0.1 -0.1)">
      <use xlink:href="#DejaVuSans-67"/>
      <use x="69.824219" xlink:href="#DejaVuSans-117"/>
      <use x="133.203125" xlink:href="#DejaVuSans-109"/>
      <use x="230.615234" xlink:href="#DejaVuSans-44"/>
      <use x="262.402344" xlink:href="#DejaVuSans-32"/>
      <use x="294.189453" xlink:href="#DejaVuSans-115"/>
      <use x="346.289062" xlink:href="#DejaVuSans-117"/>
      <use x="409.667969" xlink:href="#DejaVuSans-109"/>
     </g>
    </g>
   </g>
   <g id="line2d_35">
    <path clip-path="url(#p3be40ccbbf)" d="M 75.725885 109.776242 
L 78.017431 106.269273 
L 80.308978 104.878679 
L 82.600524 109.672652 
L 84.89207 102.665614 
L 87.183616 104.091126 
L 89.475163 107.174878 
L 91.766709 108.735074 
L 94.058255 114.673938 
L 96.349801 121.516463 
L 98.641348 115.520317 
L 100.932894 113.803092 
L 103.22444 114.080913 
L 105.515986 113.426165 
L 107.807532 115.936231 
L 110.099079 107.817694 
L 112.390625 109.581311 
L 114.682171 109.098697 
L 116.973717 113.660457 
L 119.265264 116.644186 
L 121.55681 114.737683 
L 123.848356 110.593811 
L 126.139902 106.727554 
L 128.431449 111.964322 
L 130.722995 109.806032 
L 133.014541 105.569027 
L 135.306087 108.081932 
L 137.597634 109.454782 
L 139.88918 113.517832 
L 142.180726 109.240947 
L 144.472272 107.060815 
L 146.763819 106.927485 
L 149.055365 103.326 
L 151.346911 111.473649 
L 153.638457 109.651023 
L 155.930004 101.609962 
L 158.22155 102.856065 
L 160.513096 101.073717 
L 162.804642 104.272451 
L 165.096189 100.870972 
L 167.387735 98.079047 
L 169.679281 84.780943 
L 171.970827 76.184038 
L 174.262374 77.995795 
L 176.55392 76.20473 
L 178.845466 83.057921 
L 181.137012 79.985481 
L 183.428558 88.669333 
L 185.720105 84.064932 
L 190.303197 76.746083 
L 192.594743 78.793042 
L 194.88629 80.278559 
L 197.177836 77.343764 
L 199.469382 78.892624 
L 201.760928 79.472243 
L 204.052475 82.621332 
L 206.344021 85.253919 
L 208.635567 77.431694 
L 210.927113 81.046839 
L 213.21866 82.67131 
L 215.510206 80.935253 
L 217.801752 80.894359 
L 220.093298 84.721632 
L 222.384845 80.317066 
L 224.676391 79.254331 
L 226.967937 77.196262 
L 229.259483 86.74374 
L 231.55103 91.030803 
L 233.842576 96.438226 
L 236.134122 98.63121 
L 238.425668 86.93406 
L 240.717215 87.043086 
L 243.008761 87.541079 
L 245.300307 81.217269 
L 247.591853 85.455573 
L 252.174946 76.920798 
L 254.466492 71.156813 
L 256.758038 77.765404 
L 259.049584 74.201885 
L 261.341131 72.98219 
L 263.632677 70.558777 
L 265.924223 78.506702 
L 268.215769 77.794699 
L 270.507316 82.642807 
L 272.798862 79.482487 
L 275.090408 77.83814 
L 277.381954 83.194127 
L 279.673501 81.315323 
L 281.965047 79.066684 
L 284.256593 78.416528 
L 286.548139 75.233016 
L 288.839686 74.309342 
L 291.131232 80.548478 
L 293.422778 83.356991 
L 295.714324 79.121139 
L 298.005871 75.559284 
L 300.297417 72.417242 
L 302.588963 73.380317 
L 304.880509 74.544895 
L 307.172056 75.422245 
L 309.463602 77.856626 
L 311.755148 76.978265 
L 314.046694 78.849006 
L 316.338241 75.707232 
L 320.921333 82.815845 
L 323.212879 91.975838 
L 325.504425 82.794844 
L 327.795972 81.732377 
L 330.087518 76.921285 
L 332.379064 77.58805 
L 334.67061 77.776689 
L 336.962157 82.726401 
L 339.253703 77.363183 
L 341.545249 86.211254 
L 343.836795 82.30726 
L 346.128342 85.312864 
L 348.419888 85.996468 
L 350.711434 86.97311 
L 353.00298 94.595007 
L 355.294527 97.006691 
L 357.586073 96.210806 
L 359.877619 93.497602 
L 362.169165 100.685573 
L 364.460712 104.448947 
L 366.752258 103.369669 
L 369.043804 103.471532 
L 371.33535 110.954155 
L 373.626897 102.44418 
L 375.918443 106.099619 
L 378.209989 98.88917 
L 380.501535 106.345323 
L 382.793082 105.86172 
L 385.084628 108.953524 
L 387.376174 109.38365 
L 389.66772 110.663634 
L 391.959266 108.413035 
L 394.250813 106.512715 
L 396.542359 103.65409 
L 398.833905 105.62304 
L 401.125451 109.881607 
L 405.708544 94.256066 
L 408.00009 94.344744 
L 410.291636 95.879045 
L 412.583183 104.656683 
L 417.166275 120.57143 
L 419.457821 122.664449 
L 421.749368 111.512068 
L 424.040914 107.466699 
L 426.33246 102.303539 
L 428.624006 97.801269 
L 430.915553 111.279854 
L 433.207099 101.403988 
L 435.498645 102.503466 
L 437.790191 98.492781 
L 440.081738 101.234531 
L 442.373284 97.637591 
L 444.66483 96.092522 
L 446.956376 105.273874 
L 449.247923 101.905199 
L 451.539469 101.724811 
L 453.831015 97.726451 
L 456.122561 95.862155 
L 458.414108 94.606021 
L 460.705654 98.674865 
L 462.9972 107.062143 
L 465.288746 107.057641 
L 467.580292 113.799801 
L 469.871839 119.755751 
L 472.163385 121.555448 
L 474.454931 128.968251 
L 476.746477 123.796277 
L 479.038024 123.860581 
L 481.32957 123.457602 
L 483.621116 123.781339 
L 485.912662 120.032803 
L 488.204209 127.933037 
L 492.787301 117.504341 
L 495.078847 117.876065 
L 497.370394 115.576433 
L 499.66194 117.226651 
L 501.953486 116.38516 
L 508.828125 125.457179 
L 511.119671 120.82262 
L 513.411217 117.069471 
L 515.702764 123.727403 
L 517.99431 132.845172 
L 520.285856 135.030349 
L 522.577402 137.862979 
L 524.868949 130.870217 
L 527.160495 136.493815 
L 529.452041 140.331638 
L 531.743587 140.377038 
L 531.743587 140.377038 
" style="fill:none;stroke:#1f77b4;stroke-linecap:square;stroke-width:2;"/>
   </g>
   <g id="line2d_36">
    <path clip-path="url(#p3be40ccbbf)" d="M 75.725885 123.748983 
L 78.017431 118.126587 
L 80.308978 115.999972 
L 82.600524 120.432154 
L 84.89207 126.787662 
L 87.183616 123.618678 
L 89.475163 124.038878 
L 91.766709 131.815341 
L 94.058255 122.718305 
L 96.349801 124.833275 
L 98.641348 128.626228 
L 100.932894 124.812451 
L 103.22444 135.288703 
L 105.515986 130.681745 
L 107.807532 129.853085 
L 110.099079 130.475123 
L 112.390625 130.249988 
L 114.682171 136.094638 
L 116.973717 139.69115 
L 119.265264 144.472487 
L 121.55681 140.713013 
L 123.848356 135.567693 
L 126.139902 134.104876 
L 128.431449 140.266134 
L 130.722995 140.04466 
L 133.014541 132.647466 
L 135.306087 132.101443 
L 139.88918 125.53823 
L 142.180726 128.094699 
L 144.472272 125.817814 
L 146.763819 129.721507 
L 149.055365 131.0477 
L 155.930004 137.55321 
L 158.22155 134.053376 
L 160.513096 123.374111 
L 162.804642 126.125333 
L 165.096189 117.714129 
L 167.387735 117.15682 
L 169.679281 113.283436 
L 171.970827 105.664499 
L 174.262374 104.353391 
L 176.55392 101.648678 
L 178.845466 104.776506 
L 181.137012 106.547125 
L 183.428558 103.23577 
L 188.011651 109.337061 
L 190.303197 110.843124 
L 192.594743 111.269458 
L 194.88629 109.421322 
L 197.177836 121.135834 
L 199.469382 121.233166 
L 201.760928 119.540473 
L 204.052475 118.525579 
L 206.344021 124.292984 
L 208.635567 116.31429 
L 210.927113 109.278175 
L 213.21866 109.102445 
L 215.510206 112.321575 
L 217.801752 113.196127 
L 220.093298 114.87097 
L 222.384845 113.270257 
L 224.676391 109.662265 
L 226.967937 119.789239 
L 229.259483 121.110046 
L 231.55103 127.553425 
L 233.842576 124.682374 
L 236.134122 126.794852 
L 238.425668 133.681524 
L 240.717215 138.904591 
L 243.008761 134.039176 
L 245.300307 126.292044 
L 247.591853 136.944745 
L 249.883399 134.9044 
L 252.174946 134.945733 
L 254.466492 123.816583 
L 256.758038 119.389626 
L 259.049584 120.654152 
L 261.341131 119.202784 
L 263.632677 119.998389 
L 265.924223 113.966095 
L 268.215769 129.078889 
L 270.507316 131.378945 
L 272.798862 125.842368 
L 275.090408 124.859685 
L 277.381954 127.94113 
L 279.673501 125.243206 
L 281.965047 122.303289 
L 284.256593 120.400886 
L 286.548139 115.607947 
L 288.839686 113.178824 
L 293.422778 118.30532 
L 295.714324 121.101961 
L 298.005871 116.040654 
L 300.297417 122.0198 
L 302.588963 126.123621 
L 304.880509 117.084766 
L 307.172056 116.182574 
L 309.463602 115.58606 
L 311.755148 121.152288 
L 314.046694 121.10931 
L 316.338241 122.664162 
L 318.629787 119.943369 
L 320.921333 131.975586 
L 323.212879 136.527973 
L 325.504425 138.598313 
L 327.795972 149.466225 
L 330.087518 148.927429 
L 334.67061 150.067204 
L 336.962157 162.982201 
L 339.253703 171.536004 
L 341.545249 167.36988 
L 343.836795 168.895779 
L 346.128342 166.97934 
L 348.419888 171.694212 
L 350.711434 170.82791 
L 353.00298 167.775822 
L 355.294527 163.764466 
L 357.586073 162.326138 
L 359.877619 160.046931 
L 362.169165 163.913485 
L 364.460712 162.793949 
L 366.752258 157.582253 
L 369.043804 154.895903 
L 371.33535 157.254027 
L 373.626897 162.598013 
L 375.918443 172.217649 
L 378.209989 184.931303 
L 380.501535 185.282614 
L 382.793082 182.041328 
L 385.084628 184.985893 
L 387.376174 178.093233 
L 389.66772 173.996321 
L 391.959266 176.184958 
L 394.250813 171.850882 
L 396.542359 180.20826 
L 398.833905 187.049903 
L 401.125451 189.665197 
L 403.416998 196.538776 
L 405.708544 194.224854 
L 408.00009 188.240412 
L 410.291636 191.885068 
L 412.583183 193.276085 
L 414.874729 194.101614 
L 417.166275 199.954065 
L 419.457821 198.199421 
L 421.749368 194.751426 
L 424.040914 190.934621 
L 426.33246 188.146148 
L 428.624006 202.7952 
L 430.915553 202.901065 
L 433.207099 203.898163 
L 435.498645 212.925927 
L 437.790191 205.626979 
L 440.081738 209.557063 
L 442.373284 216.783486 
L 444.66483 216.654444 
L 446.956376 223.071933 
L 449.247923 222.767213 
L 451.539469 216.596186 
L 453.831015 219.713127 
L 456.122561 228.932146 
L 458.414108 233.237424 
L 460.705654 236.227273 
L 462.9972 225.177544 
L 467.580292 223.747187 
L 469.871839 218.039189 
L 472.163385 214.370539 
L 474.454931 208.658866 
L 476.746477 209.743291 
L 479.038024 201.77237 
L 481.32957 209.348384 
L 483.621116 211.251403 
L 485.912662 205.708264 
L 488.204209 202.450838 
L 490.495755 203.490163 
L 492.787301 208.487556 
L 495.078847 200.373118 
L 497.370394 201.83387 
L 499.66194 200.889962 
L 501.953486 197.00312 
L 504.245032 195.643972 
L 506.536579 195.841041 
L 508.828125 191.275563 
L 511.119671 192.429199 
L 515.702764 199.852658 
L 517.99431 193.056919 
L 520.285856 190.822773 
L 522.577402 194.154625 
L 524.868949 200.165817 
L 527.160495 199.345423 
L 529.452041 209.043152 
L 531.743587 203.336924 
L 531.743587 203.336924 
" style="fill:none;stroke:#ff7f0e;stroke-linecap:square;stroke-width:2;"/>
   </g>
   <g id="line2d_37">
    <path clip-path="url(#p3be40ccbbf)" d="M 75.725885 125.331006 
L 78.017431 127.909113 
L 80.308978 125.641793 
L 82.600524 128.237098 
L 84.89207 128.087393 
L 87.183616 122.037755 
L 89.475163 126.834823 
L 91.766709 129.875509 
L 94.058255 123.751135 
L 96.349801 113.629549 
L 98.641348 111.818601 
L 100.932894 110.272129 
L 103.22444 101.682229 
L 105.515986 98.415909 
L 107.807532 92.447604 
L 110.099079 90.877504 
L 112.390625 80.801949 
L 114.682171 77.902713 
L 116.973717 81.523878 
L 119.265264 82.01688 
L 121.55681 75.899538 
L 123.848356 78.65684 
L 126.139902 74.393166 
L 128.431449 69.361719 
L 130.722995 69.300201 
L 133.014541 67.467808 
L 135.306087 65.334993 
L 144.472272 75.051918 
L 146.763819 71.199786 
L 149.055365 72.756021 
L 151.346911 78.889663 
L 153.638457 80.12807 
L 155.930004 78.467598 
L 158.22155 78.150108 
L 160.513096 78.516003 
L 162.804642 75.26413 
L 165.096189 74.233287 
L 167.387735 78.505573 
L 169.679281 79.74141 
L 171.970827 69.952397 
L 174.262374 70.209267 
L 176.55392 82.102248 
L 178.845466 82.88533 
L 181.137012 70.682216 
L 183.428558 64.315018 
L 185.720105 57.08523 
L 188.011651 53.225484 
L 190.303197 53.21303 
L 192.594743 57.256754 
L 194.88629 52.429084 
L 197.177836 60.618229 
L 199.469382 62.61273 
L 201.760928 66.301239 
L 204.052475 55.368509 
L 206.344021 56.254891 
L 208.635567 51.61575 
L 210.927113 53.077791 
L 213.21866 52.072177 
L 217.801752 46.067415 
L 220.093298 50.724013 
L 222.384845 64.548473 
L 224.676391 67.569723 
L 226.967937 66.590088 
L 229.259483 68.822054 
L 231.55103 71.509117 
L 233.842576 72.48525 
L 236.134122 77.36297 
L 238.425668 73.235306 
L 240.717215 76.532218 
L 243.008761 79.51718 
L 245.300307 64.236566 
L 247.591853 67.246827 
L 249.883399 63.094913 
L 252.174946 59.412069 
L 254.466492 67.670249 
L 256.758038 62.907689 
L 259.049584 69.440197 
L 261.341131 64.322078 
L 263.632677 60.003796 
L 265.924223 60.721995 
L 268.215769 59.886479 
L 270.507316 66.121084 
L 272.798862 71.641809 
L 275.090408 73.805842 
L 277.381954 79.549216 
L 279.673501 77.63438 
L 281.965047 72.922903 
L 284.256593 67.427402 
L 286.548139 70.671918 
L 288.839686 69.834883 
L 291.131232 67.640642 
L 293.422778 71.061128 
L 295.714324 76.181403 
L 298.005871 72.014532 
L 300.297417 74.053582 
L 302.588963 68.515191 
L 304.880509 67.193052 
L 307.172056 58.71098 
L 311.755148 47.743987 
L 314.046694 56.844015 
L 316.338241 55.382259 
L 318.629787 59.335786 
L 320.921333 59.079153 
L 323.212879 58.999337 
L 325.504425 52.610174 
L 327.795972 52.061597 
L 330.087518 55.236001 
L 332.379064 53.260339 
L 334.67061 56.542608 
L 336.962157 51.396741 
L 339.253703 47.02943 
L 341.545249 48.070709 
L 343.836795 37.846687 
L 346.128342 41.198123 
L 348.419888 41.574432 
L 350.711434 40.66877 
L 353.00298 38.767022 
L 355.294527 48.060545 
L 357.586073 52.311288 
L 359.877619 51.072237 
L 362.169165 52.893107 
L 364.460712 37.250792 
L 366.752258 37.012377 
L 369.043804 36.898565 
L 371.33535 38.278662 
L 373.626897 36.772727 
L 375.918443 42.067859 
L 378.209989 44.772951 
L 380.501535 46.784722 
L 382.793082 44.175866 
L 385.084628 44.974572 
L 387.376174 54.588344 
L 389.66772 58.508353 
L 391.959266 60.821515 
L 394.250813 57.325754 
L 396.542359 57.089895 
L 398.833905 61.563106 
L 401.125451 70.253568 
L 403.416998 70.532811 
L 405.708544 78.316352 
L 408.00009 77.372003 
L 410.291636 80.934762 
L 412.583183 89.859352 
L 414.874729 92.783778 
L 417.166275 86.457293 
L 419.457821 95.817713 
L 421.749368 92.379075 
L 424.040914 97.578052 
L 426.33246 97.962041 
L 428.624006 95.448275 
L 430.915553 87.142714 
L 433.207099 85.677558 
L 435.498645 83.228934 
L 437.790191 85.842431 
L 440.081738 86.075702 
L 442.373284 87.202848 
L 444.66483 95.580616 
L 446.956376 95.513366 
L 449.247923 103.65664 
L 451.539469 110.852062 
L 453.831015 111.501027 
L 456.122561 105.365237 
L 458.414108 98.603259 
L 460.705654 97.559328 
L 462.9972 90.161382 
L 465.288746 88.457536 
L 467.580292 89.702326 
L 469.871839 89.10281 
L 472.163385 89.824036 
L 474.454931 88.404276 
L 476.746477 95.650355 
L 479.038024 99.115078 
L 481.32957 104.665889 
L 483.621116 112.043542 
L 485.912662 120.721603 
L 488.204209 126.365035 
L 490.495755 129.695106 
L 492.787301 131.05855 
L 495.078847 132.562946 
L 497.370394 132.029853 
L 499.66194 122.94697 
L 501.953486 121.625364 
L 504.245032 122.51638 
L 506.536579 123.533527 
L 508.828125 128.519509 
L 511.119671 126.499135 
L 513.411217 127.279413 
L 515.702764 130.450256 
L 517.99431 129.096438 
L 520.285856 131.70657 
L 522.577402 122.626844 
L 524.868949 129.126761 
L 527.160495 124.359463 
L 529.452041 120.850266 
L 531.743587 121.675718 
L 531.743587 121.675718 
" style="fill:none;stroke:#2ca02c;stroke-linecap:square;stroke-width:2;"/>
   </g>
   <g id="patch_3">
    <path d="M 52.925 246.2 
L 52.925 26.8 
" style="fill:none;stroke:#000000;stroke-linecap:square;stroke-linejoin:miter;stroke-width:0.8;"/>
   </g>
   <g id="patch_4">
    <path d="M 554.544472 246.2 
L 554.544472 26.8 
" style="fill:none;stroke:#000000;stroke-linecap:square;stroke-linejoin:miter;stroke-width:0.8;"/>
   </g>
   <g id="patch_5">
    <path d="M 52.925 246.2 
L 554.544472 246.2 
" style="fill:none;stroke:#000000;stroke-linecap:square;stroke-linejoin:miter;stroke-width:0.8;"/>
   </g>
   <g id="patch_6">
    <path d="M 52.925 26.8 
L 554.544472 26.8 
" style="fill:none;stroke:#000000;stroke-linecap:square;stroke-linejoin:miter;stroke-width:0.8;"/>
   </g>
   <g id="text_20">
    <!-- Random trends -->
    <defs>
     <path d="M 44.390625 34.1875 
Q 47.5625 33.109375 50.5625 29.59375 
Q 53.5625 26.078125 56.59375 19.921875 
L 66.609375 0 
L 56 0 
L 46.6875 18.703125 
Q 43.0625 26.03125 39.671875 28.421875 
Q 36.28125 30.8125 30.421875 30.8125 
L 19.671875 30.8125 
L 19.671875 0 
L 9.8125 0 
L 9.8125 72.90625 
L 32.078125 72.90625 
Q 44.578125 72.90625 50.734375 67.671875 
Q 56.890625 62.453125 56.890625 51.90625 
Q 56.890625 45.015625 53.6875 40.46875 
Q 50.484375 35.9375 44.390625 34.1875 
z
M 19.671875 64.796875 
L 19.671875 38.921875 
L 32.078125 38.921875 
Q 39.203125 38.921875 42.84375 42.21875 
Q 46.484375 45.515625 46.484375 51.90625 
Q 46.484375 58.296875 42.84375 61.546875 
Q 39.203125 64.796875 32.078125 64.796875 
z
" id="DejaVuSans-82"/>
     <path d="M 54.890625 33.015625 
L 54.890625 0 
L 45.90625 0 
L 45.90625 32.71875 
Q 45.90625 40.484375 42.875 44.328125 
Q 39.84375 48.1875 33.796875 48.1875 
Q 26.515625 48.1875 22.3125 43.546875 
Q 18.109375 38.921875 18.109375 30.90625 
L 18.109375 0 
L 9.078125 0 
L 9.078125 54.6875 
L 18.109375 54.6875 
L 18.109375 46.1875 
Q 21.34375 51.125 25.703125 53.5625 
Q 30.078125 56 35.796875 56 
Q 45.21875 56 50.046875 50.171875 
Q 54.890625 44.34375 54.890625 33.015625 
z
" id="DejaVuSans-110"/>
     <path d="M 45.40625 46.390625 
L 45.40625 75.984375 
L 54.390625 75.984375 
L 54.390625 0 
L 45.40625 0 
L 45.40625 8.203125 
Q 42.578125 3.328125 38.25 0.953125 
Q 33.9375 -1.421875 27.875 -1.421875 
Q 17.96875 -1.421875 11.734375 6.484375 
Q 5.515625 14.40625 5.515625 27.296875 
Q 5.515625 40.1875 11.734375 48.09375 
Q 17.96875 56 27.875 56 
Q 33.9375 56 38.25 53.625 
Q 42.578125 51.265625 45.40625 46.390625 
z
M 14.796875 27.296875 
Q 14.796875 17.390625 18.875 11.75 
Q 22.953125 6.109375 30.078125 6.109375 
Q 37.203125 6.109375 41.296875 11.75 
Q 45.40625 17.390625 45.40625 27.296875 
Q 45.40625 37.203125 41.296875 42.84375 
Q 37.203125 48.484375 30.078125 48.484375 
Q 22.953125 48.484375 18.875 42.84375 
Q 14.796875 37.203125 14.796875 27.296875 
z
" id="DejaVuSans-100"/>
     <path d="M 30.609375 48.390625 
Q 23.390625 48.390625 19.1875 42.75 
Q 14.984375 37.109375 14.984375 27.296875 
Q 14.984375 17.484375 19.15625 11.84375 
Q 23.34375 6.203125 30.609375 6.203125 
Q 37.796875 6.203125 41.984375 11.859375 
Q 46.1875 17.53125 46.1875 27.296875 
Q 46.1875 37.015625 41.984375 42.703125 
Q 37.796875 48.390625 30.609375 48.390625 
z
M 30.609375 56 
Q 42.328125 56 49.015625 48.375 
Q 55.71875 40.765625 55.71875 27.296875 
Q 55.71875 13.875 49.015625 6.21875 
Q 42.328125 -1.421875 30.609375 -1.421875 
Q 18.84375 -1.421875 12.171875 6.21875 
Q 5.515625 13.875 5.515625 27.296875 
Q 5.515625 40.765625 12.171875 48.375 
Q 18.84375 56 30.609375 56 
z
" id="DejaVuSans-111"/>
     <path d="M 41.109375 46.296875 
Q 39.59375 47.171875 37.8125 47.578125 
Q 36.03125 48 33.890625 48 
Q 26.265625 48 22.1875 43.046875 
Q 18.109375 38.09375 18.109375 28.8125 
L 18.109375 0 
L 9.078125 0 
L 9.078125 54.6875 
L 18.109375 54.6875 
L 18.109375 46.1875 
Q 20.953125 51.171875 25.484375 53.578125 
Q 30.03125 56 36.53125 56 
Q 37.453125 56 38.578125 55.875 
Q 39.703125 55.765625 41.0625 55.515625 
z
" id="DejaVuSans-114"/>
    </defs>
    <g transform="translate(257.610674 20.8)scale(0.12 -0.12)">
     <use xlink:href="#DejaVuSans-82"/>
     <use x="69.451172" xlink:href="#DejaVuSans-97"/>
     <use x="130.730469" xlink:href="#DejaVuSans-110"/>
     <use x="194.109375" xlink:href="#DejaVuSans-100"/>
     <use x="257.585938" xlink:href="#DejaVuSans-111"/>
     <use x="318.767578" xlink:href="#DejaVuSans-109"/>
     <use x="416.179688" xlink:href="#DejaVuSans-32"/>
     <use x="447.966797" xlink:href="#DejaVuSans-116"/>
     <use x="487.175781" xlink:href="#DejaVuSans-114"/>
     <use x="528.257812" xlink:href="#DejaVuSans-101"/>
     <use x="589.78125" xlink:href="#DejaVuSans-110"/>
     <use x="653.160156" xlink:href="#DejaVuSans-100"/>
     <use x="716.636719" xlink:href="#DejaVuSans-115"/>
    </g>
   </g>
   <g id="legend_1">
    <g id="patch_7">
     <path d="M 507.012711 70.277394 
L 548.713472 70.277394 
Q 550.379472 70.277394 550.379472 68.611394 
L 550.379472 32.631 
Q 550.379472 30.965 548.713472 30.965 
L 507.012711 30.965 
Q 505.346711 30.965 505.346711 32.631 
L 505.346711 68.611394 
Q 505.346711 70.277394 507.012711 70.277394 
z
" style="fill:#ffffff;opacity:0.5;stroke:#cccccc;stroke-linejoin:miter;"/>
    </g>
    <g id="line2d_38">
     <path d="M 508.678711 37.755252 
L 525.338711 37.755252 
" style="fill:none;stroke:#1f77b4;stroke-linecap:square;stroke-width:2;"/>
    </g>
    <g id="line2d_39"/>
    <g id="text_21">
     <!-- foo -->
     <defs>
      <path d="M 51.90625 75.984375 
L 51.90625 68.5 
L 41.703125 68.5 
Q 36.859375 68.5 34.984375 66.515625 
Q 33.109375 64.546875 33.109375 59.515625 
L 33.109375 54.6875 
L 51.90625 54.6875 
L 51.90625 47.703125 
L 33.109375 47.703125 
L 33.109375 0 
L 24.125 0 
L 24.125 47.703125 
L 9.515625 47.703125 
L 9.515625 54.6875 
L 24.125 54.6875 
L 24.125 58.5 
Q 24.125 67.484375 28.25 71.734375 
Q 32.375 75.984375 41.109375 75.984375 
z
" id="DejaVuSansMono-102"/>
      <path d="M 30.078125 48.390625 
Q 23.25 48.390625 19.734375 43.0625 
Q 16.21875 37.75 16.21875 27.296875 
Q 16.21875 16.890625 19.734375 11.546875 
Q 23.25 6.203125 30.078125 6.203125 
Q 36.96875 6.203125 40.484375 11.546875 
Q 44 16.890625 44 27.296875 
Q 44 37.75 40.484375 43.0625 
Q 36.96875 48.390625 30.078125 48.390625 
z
M 30.078125 56 
Q 41.453125 56 47.484375 48.625 
Q 53.515625 41.265625 53.515625 27.296875 
Q 53.515625 13.28125 47.5 5.921875 
Q 41.5 -1.421875 30.078125 -1.421875 
Q 18.703125 -1.421875 12.6875 5.921875 
Q 6.6875 13.28125 6.6875 27.296875 
Q 6.6875 41.265625 12.6875 48.625 
Q 18.703125 56 30.078125 56 
z
" id="DejaVuSansMono-111"/>
     </defs>
     <g transform="translate(532.002711 40.670752)scale(0.0833 -0.0833)">
      <use xlink:href="#DejaVuSansMono-102"/>
      <use x="60.205078" xlink:href="#DejaVuSansMono-111"/>
      <use x="120.410156" xlink:href="#DejaVuSansMono-111"/>
     </g>
    </g>
    <g id="line2d_40">
     <path d="M 508.678711 50.026383 
L 525.338711 50.026383 
" style="fill:none;stroke:#ff7f0e;stroke-linecap:square;stroke-width:2;"/>
    </g>
    <g id="line2d_41"/>
    <g id="text_22">
     <!-- bar -->
     <defs>
      <path d="M 44.828125 27.296875 
Q 44.828125 37.75 41.5 43.0625 
Q 38.1875 48.390625 31.6875 48.390625 
Q 25.140625 48.390625 21.765625 43.046875 
Q 18.40625 37.703125 18.40625 27.296875 
Q 18.40625 16.9375 21.765625 11.5625 
Q 25.140625 6.203125 31.6875 6.203125 
Q 38.1875 6.203125 41.5 11.515625 
Q 44.828125 16.84375 44.828125 27.296875 
z
M 18.40625 47.703125 
Q 20.5625 51.703125 24.34375 53.84375 
Q 28.125 56 33.109375 56 
Q 42.96875 56 48.625 48.40625 
Q 54.296875 40.828125 54.296875 27.484375 
Q 54.296875 13.96875 48.609375 6.265625 
Q 42.921875 -1.421875 33.015625 -1.421875 
Q 28.125 -1.421875 24.390625 0.703125 
Q 20.65625 2.828125 18.40625 6.890625 
L 18.40625 0 
L 9.421875 0 
L 9.421875 75.984375 
L 18.40625 75.984375 
z
" id="DejaVuSansMono-98"/>
      <path d="M 34.28125 27.484375 
L 31.296875 27.484375 
Q 23.4375 27.484375 19.453125 24.71875 
Q 15.484375 21.96875 15.484375 16.5 
Q 15.484375 11.578125 18.453125 8.84375 
Q 21.4375 6.109375 26.703125 6.109375 
Q 34.125 6.109375 38.375 11.25 
Q 42.625 16.40625 42.671875 25.484375 
L 42.671875 27.484375 
z
M 51.703125 31.203125 
L 51.703125 0 
L 42.671875 0 
L 42.671875 8.109375 
Q 39.796875 3.21875 35.421875 0.890625 
Q 31.0625 -1.421875 24.8125 -1.421875 
Q 16.453125 -1.421875 11.46875 3.296875 
Q 6.5 8.015625 6.5 15.921875 
Q 6.5 25.046875 12.625 29.78125 
Q 18.75 34.515625 30.609375 34.515625 
L 42.671875 34.515625 
L 42.671875 35.9375 
Q 42.625 42.484375 39.34375 45.4375 
Q 36.078125 48.390625 28.90625 48.390625 
Q 24.3125 48.390625 19.625 47.0625 
Q 14.9375 45.75 10.5 43.21875 
L 10.5 52.203125 
Q 15.484375 54.109375 20.046875 55.046875 
Q 24.609375 56 28.90625 56 
Q 35.6875 56 40.5 54 
Q 45.3125 52 48.296875 48 
Q 50.140625 45.5625 50.921875 41.96875 
Q 51.703125 38.375 51.703125 31.203125 
z
" id="DejaVuSansMono-97"/>
      <path d="M 56.390625 43.40625 
Q 53.515625 45.65625 50.53125 46.671875 
Q 47.5625 47.703125 44 47.703125 
Q 35.59375 47.703125 31.140625 42.421875 
Q 26.703125 37.15625 26.703125 27.203125 
L 26.703125 0 
L 17.671875 0 
L 17.671875 54.6875 
L 26.703125 54.6875 
L 26.703125 44 
Q 28.953125 49.8125 33.609375 52.90625 
Q 38.28125 56 44.671875 56 
Q 48 56 50.875 55.171875 
Q 53.765625 54.34375 56.390625 52.59375 
z
" id="DejaVuSansMono-114"/>
     </defs>
     <g transform="translate(532.002711 52.941883)scale(0.0833 -0.0833)">
      <use xlink:href="#DejaVuSansMono-98"/>
      <use x="60.205078" xlink:href="#DejaVuSansMono-97"/>
      <use x="120.410156" xlink:href="#DejaVuSansMono-114"/>
     </g>
    </g>
    <g id="line2d_42">
     <path d="M 508.678711 62.297514 
L 525.338711 62.297514 
" style="fill:none;stroke:#2ca02c;stroke-linecap:square;stroke-width:2;"/>
    </g>
    <g id="line2d_43"/>
    <g id="text_23">
     <!-- baz -->
     <defs>
      <path d="M 11.078125 54.78125 
L 50.78125 54.78125 
L 50.78125 46.578125 
L 19.390625 7.328125 
L 50.78125 7.328125 
L 50.78125 0 
L 9.90625 0 
L 9.90625 8.296875 
L 41.3125 47.609375 
L 11.078125 47.609375 
z
" id="DejaVuSansMono-122"/>
     </defs>
     <g transform="translate(532.002711 65.213014)scale(0.0833 -0.0833)">
      <use xlink:href="#DejaVuSansMono-98"/>
      <use x="60.205078" xlink:href="#DejaVuSansMono-97"/>
      <use x="120.410156" xlink:href="#DejaVuSansMono-122"/>
     </g>
    </g>
   </g>
  </g>
  <g id="text_24">
   <!-- Acme designs 2015 -->
   <defs>
    <path d="M 34.1875 63.1875 
L 20.796875 26.90625 
L 47.609375 26.90625 
z
M 28.609375 72.90625 
L 39.796875 72.90625 
L 67.578125 0 
L 57.328125 0 
L 50.6875 18.703125 
L 17.828125 18.703125 
L 11.1875 0 
L 0.78125 0 
z
" id="DejaVuSans-65"/>
    <path d="M 48.78125 52.59375 
L 48.78125 44.1875 
Q 44.96875 46.296875 41.140625 47.34375 
Q 37.3125 48.390625 33.40625 48.390625 
Q 24.65625 48.390625 19.8125 42.84375 
Q 14.984375 37.3125 14.984375 27.296875 
Q 14.984375 17.28125 19.8125 11.734375 
Q 24.65625 6.203125 33.40625 6.203125 
Q 37.3125 6.203125 41.140625 7.25 
Q 44.96875 8.296875 48.78125 10.40625 
L 48.78125 2.09375 
Q 45.015625 0.34375 40.984375 -0.53125 
Q 36.96875 -1.421875 32.421875 -1.421875 
Q 20.0625 -1.421875 12.78125 6.34375 
Q 5.515625 14.109375 5.515625 27.296875 
Q 5.515625 40.671875 12.859375 48.328125 
Q 20.21875 56 33.015625 56 
Q 37.15625 56 41.109375 55.140625 
Q 45.0625 54.296875 48.78125 52.59375 
z
" id="DejaVuSans-99"/>
    <path d="M 9.421875 54.6875 
L 18.40625 54.6875 
L 18.40625 0 
L 9.421875 0 
z
M 9.421875 75.984375 
L 18.40625 75.984375 
L 18.40625 64.59375 
L 9.421875 64.59375 
z
" id="DejaVuSans-105"/>
    <path d="M 45.40625 27.984375 
Q 45.40625 37.75 41.375 43.109375 
Q 37.359375 48.484375 30.078125 48.484375 
Q 22.859375 48.484375 18.828125 43.109375 
Q 14.796875 37.75 14.796875 27.984375 
Q 14.796875 18.265625 18.828125 12.890625 
Q 22.859375 7.515625 30.078125 7.515625 
Q 37.359375 7.515625 41.375 12.890625 
Q 45.40625 18.265625 45.40625 27.984375 
z
M 54.390625 6.78125 
Q 54.390625 -7.171875 48.1875 -13.984375 
Q 42 -20.796875 29.203125 -20.796875 
Q 24.46875 -20.796875 20.265625 -20.09375 
Q 16.0625 -19.390625 12.109375 -17.921875 
L 12.109375 -9.1875 
Q 16.0625 -11.328125 19.921875 -12.34375 
Q 23.78125 -13.375 27.78125 -13.375 
Q 36.625 -13.375 41.015625 -8.765625 
Q 45.40625 -4.15625 45.40625 5.171875 
L 45.40625 9.625 
Q 42.625 4.78125 38.28125 2.390625 
Q 33.9375 0 27.875 0 
Q 17.828125 0 11.671875 7.65625 
Q 5.515625 15.328125 5.515625 27.984375 
Q 5.515625 40.671875 11.671875 48.328125 
Q 17.828125 56 27.875 56 
Q 33.9375 56 38.28125 53.609375 
Q 42.625 51.21875 45.40625 46.390625 
L 45.40625 54.6875 
L 54.390625 54.6875 
z
" id="DejaVuSans-103"/>
   </defs>
   <g transform="translate(474.698125 283.040313)scale(0.1 -0.1)">
    <use xlink:href="#DejaVuSans-65"/>
    <use x="68.392578" xlink:href="#DejaVuSans-99"/>
    <use x="123.373047" xlink:href="#DejaVuSans-109"/>
    <use x="220.785156" xlink:href="#DejaVuSans-101"/>
    <use x="282.308594" xlink:href="#DejaVuSans-32"/>
    <use x="314.095703" xlink:href="#DejaVuSans-100"/>
    <use x="377.572266" xlink:href="#DejaVuSans-101"/>
    <use x="439.095703" xlink:href="#DejaVuSans-115"/>
    <use x="491.195312" xlink:href="#DejaVuSans-105"/>
    <use x="518.978516" xlink:href="#DejaVuSans-103"/>
    <use x="582.455078" xlink:href="#DejaVuSans-110"/>
    <use x="645.833984" xlink:href="#DejaVuSans-115"/>
    <use x="697.933594" xlink:href="#DejaVuSans-32"/>
    <use x="729.720703" xlink:href="#DejaVuSans-50"/>
    <use x="793.34375" xlink:href="#DejaVuSans-48"/>
    <use x="856.966797" xlink:href="#DejaVuSans-49"/>
    <use x="920.589844" xlink:href="#DejaVuSans-53"/>
   </g>
  </g>
 </g>
 <defs>
  <clipPath id="p3be40ccbbf">
   <rect height="219.4" width="501.619472" x="52.925" y="26.8"/>
  </clipPath>
 </defs>
</svg>
